# xmcd
#
# Track frame offsets:
#	225
#	11175
#	26325
#	38400
#	51975
#	62775
#	75517
#	88790
#	107690
#	120622
#	134995
#	149665
#
# Disc length: 2164 seconds
#
# Revision: 0
# Processed by: cddbd v1.4PL0 Copyright (c) Steve Scherf et al.
# Submitted via: dBpowerAMP V4.0
#
DISCID=a808710c
DTITLE=Stompin' Tom Conners - The Unpopular Stompin' Tom
DYEAR=1976
DGENRE=Country
TTITLE0=Good Morning Mr. Sunshine - Stompin' Tom Conners
TTITLE1=Where The Chinooks Blow - Stompin' Tom Conners
TTITLE2=Zephyrs In The Maple - Stompin' Tom Conners
TTITLE3=My Door's Always Open to You - Stompin' Tom Conners
TTITLE4=Blue Misery - Stompin' Tom Conners
TTITLE5=The Pole and The Hole (money pole) - Stompin' Tom Conners
TTITLE6=A Damn Good Song For A Miner - Stompin' Tom Conners
TTITLE7=Cowboy, Johnny Ware - Stompin' Tom Conners
TTITLE8=Ghost of Bras D'or - Stompin' Tom Conners
TTITLE9=Don Valley Jail - Stompin' Tom Conners
TTITLE10=Big and Friendly Waiter John - Stompin' Tom Conners
TTITLE11=The Olympic Song - Stompin' Tom Conners
EXTD=
EXTT0=
EXTT1=
EXTT2=
EXTT3=
EXTT4=
EXTT5=
EXTT6=
EXTT7=
EXTT8=
EXTT9=
EXTT10=
EXTT11=
PLAYORDER=
